<svg width="512" height="256" viewBox="0 0 512 256" fill="none" xmlns="http://www.w3.org/2000/svg">
<rect width="512" height="256" fill="#1C2333"/>
<path d="M242.92 174.2C241.973 174.2 241.093 174.08 240.28 173.84C239.467 173.587 238.773 173.22 238.2 172.74L239.42 171.1C240.127 171.54 240.747 171.847 241.28 172.02C241.827 172.193 242.373 172.28 242.92 172.28C243.627 172.28 244.18 172.173 244.58 171.96C244.993 171.747 245.2 171.46 245.2 171.1C245.2 170.807 245.08 170.587 244.84 170.44C244.6 170.28 244.287 170.16 243.9 170.08C243.513 170 243.087 169.927 242.62 169.86C242.153 169.793 241.68 169.707 241.2 169.6C240.733 169.48 240.307 169.32 239.92 169.12C239.533 168.907 239.22 168.627 238.98 168.28C238.74 167.92 238.62 167.453 238.62 166.88C238.62 166.213 238.793 165.647 239.14 165.18C239.5 164.713 240 164.353 240.64 164.1C241.293 163.847 242.04 163.72 242.88 163.72C243.653 163.72 244.413 163.827 245.16 164.04C245.92 164.24 246.633 164.573 247.3 165.04L246.08 166.64C245.547 166.28 245.007 166.02 244.46 165.86C243.913 165.7 243.367 165.62 242.82 165.62C242.207 165.62 241.727 165.72 241.38 165.92C241.033 166.107 240.86 166.36 240.86 166.68C240.86 166.96 240.973 167.173 241.2 167.32C241.44 167.467 241.76 167.58 242.16 167.66C242.56 167.74 242.993 167.813 243.46 167.88C243.94 167.947 244.413 168.04 244.88 168.16C245.36 168.267 245.8 168.427 246.2 168.64C246.6 168.84 246.92 169.12 247.16 169.48C247.4 169.84 247.52 170.313 247.52 170.9C247.52 171.553 247.313 172.127 246.9 172.62C246.5 173.113 245.953 173.5 245.26 173.78C244.567 174.06 243.787 174.2 242.92 174.2ZM250.492 174V163.9H253.012V165.38C253.786 164.287 254.812 163.74 256.092 163.74C256.772 163.74 257.372 163.893 257.892 164.2C258.412 164.493 258.819 164.907 259.112 165.44C259.406 165.973 259.552 166.593 259.552 167.3V174H257.052V168.02C257.052 167.327 256.859 166.78 256.472 166.38C256.099 165.967 255.592 165.76 254.952 165.76C254.566 165.76 254.206 165.84 253.872 166C253.552 166.16 253.266 166.4 253.012 166.72V174H250.492ZM266.944 162.04C266.464 162.04 266.058 161.873 265.724 161.54C265.391 161.193 265.224 160.787 265.224 160.32C265.224 159.853 265.391 159.453 265.724 159.12C266.058 158.773 266.464 158.6 266.944 158.6C267.411 158.6 267.811 158.773 268.144 159.12C268.491 159.453 268.664 159.853 268.664 160.32C268.664 160.787 268.491 161.193 268.144 161.54C267.811 161.873 267.411 162.04 266.944 162.04ZM269.544 174.2C268.278 174.2 267.318 173.9 266.664 173.3C266.011 172.7 265.684 171.813 265.684 170.64V165.88H262.084V163.9H268.184V170.38C268.184 170.967 268.324 171.393 268.604 171.66C268.898 171.927 269.344 172.06 269.944 172.06C270.264 172.06 270.578 172.033 270.884 171.98C271.191 171.913 271.531 171.8 271.904 171.64V173.74C271.624 173.86 271.264 173.967 270.824 174.06C270.384 174.153 269.958 174.2 269.544 174.2ZM274.417 178.18V163.9H276.837V165.08C277.197 164.653 277.61 164.327 278.077 164.1C278.543 163.873 279.057 163.76 279.617 163.76C280.457 163.76 281.217 163.993 281.897 164.46C282.59 164.913 283.137 165.533 283.537 166.32C283.95 167.093 284.157 167.973 284.157 168.96C284.157 169.933 283.95 170.813 283.537 171.6C283.137 172.387 282.59 173.013 281.897 173.48C281.203 173.933 280.43 174.16 279.577 174.16C279.057 174.16 278.57 174.06 278.117 173.86C277.663 173.647 277.263 173.36 276.917 173V178.18H274.417ZM279.017 172.12C279.55 172.12 280.017 171.987 280.417 171.72C280.817 171.453 281.13 171.08 281.357 170.6C281.583 170.12 281.697 169.573 281.697 168.96C281.697 168.333 281.583 167.787 281.357 167.32C281.13 166.84 280.817 166.467 280.417 166.2C280.017 165.933 279.55 165.8 279.017 165.8C278.603 165.8 278.217 165.88 277.857 166.04C277.497 166.2 277.183 166.427 276.917 166.72V171.18C277.183 171.473 277.497 171.707 277.857 171.88C278.217 172.04 278.603 172.12 279.017 172.12ZM302.881 174.2C301.934 174.2 301.054 174.08 300.241 173.84C299.428 173.587 298.734 173.22 298.161 172.74L299.381 171.1C300.088 171.54 300.708 171.847 301.241 172.02C301.788 172.193 302.334 172.28 302.881 172.28C303.588 172.28 304.141 172.173 304.541 171.96C304.954 171.747 305.161 171.46 305.161 171.1C305.161 170.807 305.041 170.587 304.801 170.44C304.561 170.28 304.248 170.16 303.861 170.08C303.474 170 303.048 169.927 302.581 169.86C302.114 169.793 301.641 169.707 301.161 169.6C300.694 169.48 300.268 169.32 299.881 169.12C299.494 168.907 299.181 168.627 298.941 168.28C298.701 167.92 298.581 167.453 298.581 166.88C298.581 166.213 298.754 165.647 299.101 165.18C299.461 164.713 299.961 164.353 300.601 164.1C301.254 163.847 302.001 163.72 302.841 163.72C303.614 163.72 304.374 163.827 305.121 164.04C305.881 164.24 306.594 164.573 307.261 165.04L306.041 166.64C305.508 166.28 304.968 166.02 304.421 165.86C303.874 165.7 303.328 165.62 302.781 165.62C302.168 165.62 301.688 165.72 301.341 165.92C300.994 166.107 300.821 166.36 300.821 166.68C300.821 166.96 300.934 167.173 301.161 167.32C301.401 167.467 301.721 167.58 302.121 167.66C302.521 167.74 302.954 167.813 303.421 167.88C303.901 167.947 304.374 168.04 304.841 168.16C305.321 168.267 305.761 168.427 306.161 168.64C306.561 168.84 306.881 169.12 307.121 169.48C307.361 169.84 307.481 170.313 307.481 170.9C307.481 171.553 307.274 172.127 306.861 172.62C306.461 173.113 305.914 173.5 305.221 173.78C304.528 174.06 303.748 174.2 302.881 174.2ZM310.453 174V163.9H312.973V165.38C313.746 164.287 314.773 163.74 316.053 163.74C316.733 163.74 317.333 163.893 317.853 164.2C318.373 164.493 318.78 164.907 319.073 165.44C319.366 165.973 319.513 166.593 319.513 167.3V174H317.013V168.02C317.013 167.327 316.82 166.78 316.433 166.38C316.06 165.967 315.553 165.76 314.913 165.76C314.526 165.76 314.166 165.84 313.833 166C313.513 166.16 313.226 166.4 312.973 166.72V174H310.453ZM326.905 162.04C326.425 162.04 326.019 161.873 325.685 161.54C325.352 161.193 325.185 160.787 325.185 160.32C325.185 159.853 325.352 159.453 325.685 159.12C326.019 158.773 326.425 158.6 326.905 158.6C327.372 158.6 327.772 158.773 328.105 159.12C328.452 159.453 328.625 159.853 328.625 160.32C328.625 160.787 328.452 161.193 328.105 161.54C327.772 161.873 327.372 162.04 326.905 162.04ZM329.505 174.2C328.239 174.2 327.279 173.9 326.625 173.3C325.972 172.7 325.645 171.813 325.645 170.64V165.88H322.045V163.9H328.145V170.38C328.145 170.967 328.285 171.393 328.565 171.66C328.859 171.927 329.305 172.06 329.905 172.06C330.225 172.06 330.539 172.033 330.845 171.98C331.152 171.913 331.492 171.8 331.865 171.64V173.74C331.585 173.86 331.225 173.967 330.785 174.06C330.345 174.153 329.919 174.2 329.505 174.2ZM334.378 178.18V163.9H336.798V165.08C337.158 164.653 337.571 164.327 338.038 164.1C338.504 163.873 339.018 163.76 339.578 163.76C340.418 163.76 341.178 163.993 341.858 164.46C342.551 164.913 343.098 165.533 343.497 166.32C343.911 167.093 344.118 167.973 344.118 168.96C344.118 169.933 343.911 170.813 343.497 171.6C343.098 172.387 342.551 173.013 341.858 173.48C341.164 173.933 340.391 174.16 339.538 174.16C339.018 174.16 338.531 174.06 338.077 173.86C337.624 173.647 337.224 173.36 336.878 173V178.18H334.378ZM338.978 172.12C339.511 172.12 339.978 171.987 340.378 171.72C340.778 171.453 341.091 171.08 341.318 170.6C341.544 170.12 341.658 169.573 341.658 168.96C341.658 168.333 341.544 167.787 341.318 167.32C341.091 166.84 340.778 166.467 340.378 166.2C339.978 165.933 339.511 165.8 338.978 165.8C338.564 165.8 338.178 165.88 337.818 166.04C337.458 166.2 337.144 166.427 336.878 166.72V171.18C337.144 171.473 337.458 171.707 337.818 171.88C338.178 172.04 338.564 172.12 338.978 172.12ZM362.882 162.04C362.402 162.04 361.995 161.873 361.662 161.54C361.329 161.193 361.162 160.787 361.162 160.32C361.162 159.853 361.329 159.453 361.662 159.12C361.995 158.773 362.402 158.6 362.882 158.6C363.349 158.6 363.749 158.773 364.082 159.12C364.429 159.453 364.602 159.853 364.602 160.32C364.602 160.787 364.429 161.193 364.082 161.54C363.749 161.873 363.349 162.04 362.882 162.04ZM365.482 174.2C364.215 174.2 363.255 173.9 362.602 173.3C361.949 172.7 361.622 171.813 361.622 170.64V165.88H358.022V163.9H364.122V170.38C364.122 170.967 364.262 171.393 364.542 171.66C364.835 171.927 365.282 172.06 365.882 172.06C366.202 172.06 366.515 172.033 366.822 171.98C367.129 171.913 367.469 171.8 367.842 171.64V173.74C367.562 173.86 367.202 173.967 366.762 174.06C366.322 174.153 365.895 174.2 365.482 174.2ZM376.734 174.2C375.427 174.2 374.441 173.913 373.774 173.34C373.107 172.767 372.774 171.92 372.774 170.8V165.88H369.614V163.9H372.774V161.12L375.274 160.6V163.9H379.434V165.88H375.274V170.32C375.274 170.947 375.421 171.393 375.714 171.66C376.007 171.927 376.474 172.06 377.114 172.06C377.447 172.06 377.794 172.033 378.154 171.98C378.527 171.913 378.961 171.807 379.454 171.66V173.74C379.041 173.873 378.587 173.98 378.094 174.06C377.614 174.153 377.161 174.2 376.734 174.2ZM385.326 164.48L386.546 159H389.426L387.166 164.48H385.326ZM398.818 174.2C397.872 174.2 396.992 174.08 396.178 173.84C395.365 173.587 394.672 173.22 394.098 172.74L395.318 171.1C396.025 171.54 396.645 171.847 397.178 172.02C397.725 172.193 398.272 172.28 398.818 172.28C399.525 172.28 400.078 172.173 400.478 171.96C400.892 171.747 401.098 171.46 401.098 171.1C401.098 170.807 400.978 170.587 400.738 170.44C400.498 170.28 400.185 170.16 399.798 170.08C399.412 170 398.985 169.927 398.518 169.86C398.052 169.793 397.578 169.707 397.098 169.6C396.632 169.48 396.205 169.32 395.818 169.12C395.432 168.907 395.118 168.627 394.878 168.28C394.638 167.92 394.518 167.453 394.518 166.88C394.518 166.213 394.692 165.647 395.038 165.18C395.398 164.713 395.898 164.353 396.538 164.1C397.192 163.847 397.938 163.72 398.778 163.72C399.552 163.72 400.312 163.827 401.058 164.04C401.818 164.24 402.532 164.573 403.198 165.04L401.978 166.64C401.445 166.28 400.905 166.02 400.358 165.86C399.812 165.7 399.265 165.62 398.718 165.62C398.105 165.62 397.625 165.72 397.278 165.92C396.932 166.107 396.758 166.36 396.758 166.68C396.758 166.96 396.872 167.173 397.098 167.32C397.338 167.467 397.658 167.58 398.058 167.66C398.458 167.74 398.892 167.813 399.358 167.88C399.838 167.947 400.312 168.04 400.778 168.16C401.258 168.267 401.698 168.427 402.098 168.64C402.498 168.84 402.818 169.12 403.058 169.48C403.298 169.84 403.418 170.313 403.418 170.9C403.418 171.553 403.212 172.127 402.798 172.62C402.398 173.113 401.852 173.5 401.158 173.78C400.465 174.06 399.685 174.2 398.818 174.2ZM422.243 174.16C421.403 174.16 420.636 173.933 419.943 173.48C419.263 173.013 418.716 172.387 418.303 171.6C417.903 170.813 417.703 169.933 417.703 168.96C417.703 167.973 417.903 167.093 418.303 166.32C418.716 165.533 419.269 164.913 419.963 164.46C420.656 163.993 421.429 163.76 422.283 163.76C422.803 163.76 423.283 163.86 423.723 164.06C424.176 164.26 424.576 164.547 424.923 164.92V159.66L427.443 159.26V174H425.003V172.88C424.656 173.293 424.249 173.613 423.783 173.84C423.316 174.053 422.803 174.16 422.243 174.16ZM422.843 172.12C423.256 172.12 423.643 172.04 424.003 171.88C424.363 171.72 424.669 171.493 424.923 171.2V166.72C424.669 166.427 424.356 166.2 423.983 166.04C423.623 165.88 423.243 165.8 422.843 165.8C422.309 165.8 421.843 165.933 421.443 166.2C421.043 166.467 420.729 166.84 420.503 167.32C420.276 167.787 420.163 168.333 420.163 168.96C420.163 169.573 420.276 170.12 420.503 170.6C420.729 171.08 421.043 171.453 421.443 171.72C421.843 171.987 422.309 172.12 422.843 172.12ZM434.875 174.2C433.915 174.2 433.048 173.973 432.275 173.52C431.502 173.053 430.888 172.427 430.435 171.64C429.982 170.84 429.755 169.947 429.755 168.96C429.755 167.987 429.982 167.107 430.435 166.32C430.888 165.52 431.502 164.893 432.275 164.44C433.048 163.973 433.915 163.74 434.875 163.74C435.848 163.74 436.715 163.973 437.475 164.44C438.248 164.893 438.862 165.52 439.315 166.32C439.768 167.107 439.995 167.987 439.995 168.96C439.995 169.947 439.768 170.84 439.315 171.64C438.862 172.427 438.248 173.053 437.475 173.52C436.715 173.973 435.848 174.2 434.875 174.2ZM434.875 172.06C435.395 172.06 435.855 171.927 436.255 171.66C436.655 171.393 436.968 171.027 437.195 170.56C437.422 170.093 437.535 169.567 437.535 168.98C437.535 168.38 437.422 167.853 437.195 167.4C436.968 166.933 436.655 166.567 436.255 166.3C435.855 166.033 435.395 165.9 434.875 165.9C434.355 165.9 433.895 166.033 433.495 166.3C433.095 166.567 432.782 166.933 432.555 167.4C432.328 167.853 432.215 168.38 432.215 168.98C432.215 169.567 432.328 170.093 432.555 170.56C432.782 171.027 433.095 171.393 433.495 171.66C433.895 171.927 434.355 172.06 434.875 172.06ZM442.367 174V163.9H444.887V165.38C445.661 164.287 446.687 163.74 447.967 163.74C448.647 163.74 449.247 163.893 449.767 164.2C450.287 164.493 450.694 164.907 450.987 165.44C451.281 165.973 451.427 166.593 451.427 167.3V174H448.927V168.02C448.927 167.327 448.734 166.78 448.347 166.38C447.974 165.967 447.467 165.76 446.827 165.76C446.441 165.76 446.081 165.84 445.747 166C445.427 166.16 445.141 166.4 444.887 166.72V174H442.367ZM459.139 174.2C458.139 174.2 457.239 173.973 456.439 173.52C455.639 173.053 455.006 172.427 454.539 171.64C454.073 170.84 453.839 169.947 453.839 168.96C453.839 167.973 454.059 167.087 454.499 166.3C454.953 165.513 455.559 164.893 456.319 164.44C457.079 163.973 457.939 163.74 458.899 163.74C459.886 163.74 460.759 163.967 461.519 164.42C462.293 164.873 462.893 165.493 463.319 166.28C463.759 167.067 463.979 167.967 463.979 168.98V169.58H456.299C456.393 170.087 456.573 170.533 456.839 170.92C457.106 171.307 457.446 171.607 457.859 171.82C458.286 172.033 458.753 172.14 459.259 172.14C459.766 172.14 460.233 172.047 460.659 171.86C461.086 171.673 461.446 171.407 461.739 171.06L463.379 172.52C462.779 173.107 462.133 173.533 461.439 173.8C460.746 174.067 459.979 174.2 459.139 174.2ZM456.339 168.06H461.599C461.519 167.58 461.353 167.173 461.099 166.84C460.859 166.493 460.553 166.227 460.179 166.04C459.819 165.853 459.406 165.76 458.939 165.76C458.513 165.76 458.113 165.853 457.739 166.04C457.379 166.227 457.079 166.493 456.839 166.84C456.599 167.173 456.433 167.58 456.339 168.06Z" fill="#8EC0F2"/>
<path d="M256.456 141.704C253.213 141.704 250.163 141.171 247.304 140.104C244.445 139.037 241.608 137.416 238.792 135.24L243.208 128.84C245.981 130.931 248.392 132.424 250.44 133.32C252.488 134.216 254.557 134.664 256.648 134.664C258.312 134.664 259.741 134.408 260.936 133.896C262.131 133.341 263.069 132.595 263.752 131.656C264.435 130.717 264.776 129.651 264.776 128.456C264.776 126.963 264.328 125.789 263.432 124.936C262.536 124.083 261.341 123.421 259.848 122.952C258.397 122.44 256.776 122.013 254.984 121.672C253.235 121.288 251.464 120.861 249.672 120.392C247.923 119.88 246.301 119.176 244.808 118.28C243.357 117.384 242.184 116.189 241.288 114.696C240.392 113.16 239.944 111.197 239.944 108.808C239.944 106.077 240.584 103.731 241.864 101.768C243.144 99.8053 244.979 98.2693 247.368 97.16C249.757 96.0507 252.595 95.496 255.88 95.496C258.909 95.496 261.832 95.9653 264.648 96.904C267.507 97.8427 270.152 99.2293 272.584 101.064L268.232 107.4C266.099 105.779 263.987 104.563 261.896 103.752C259.805 102.941 257.693 102.536 255.56 102.536C253.256 102.536 251.421 103.048 250.056 104.072C248.691 105.096 248.008 106.419 248.008 108.04C248.008 109.491 248.456 110.621 249.352 111.432C250.291 112.243 251.507 112.904 253 113.416C254.493 113.885 256.136 114.312 257.928 114.696C259.72 115.037 261.512 115.485 263.304 116.04C265.096 116.552 266.739 117.256 268.232 118.152C269.725 119.048 270.92 120.264 271.816 121.8C272.712 123.336 273.16 125.32 273.16 127.752C273.16 130.483 272.456 132.915 271.048 135.048C269.683 137.139 267.741 138.781 265.224 139.976C262.749 141.128 259.827 141.704 256.456 141.704ZM280.175 141V108.68H288.239V113.416C290.714 109.917 293.999 108.168 298.095 108.168C300.271 108.168 302.191 108.659 303.855 109.64C305.519 110.579 306.82 111.901 307.759 113.608C308.698 115.315 309.167 117.299 309.167 119.56V141H301.167V121.864C301.167 119.645 300.548 117.896 299.311 116.616C298.116 115.293 296.495 114.632 294.447 114.632C293.21 114.632 292.058 114.888 290.991 115.4C289.967 115.912 289.05 116.68 288.239 117.704V141H280.175ZM332.822 102.728C331.286 102.728 329.985 102.195 328.918 101.128C327.851 100.019 327.318 98.7173 327.318 97.224C327.318 95.7307 327.851 94.4507 328.918 93.384C329.985 92.2747 331.286 91.72 332.822 91.72C334.315 91.72 335.595 92.2747 336.662 93.384C337.771 94.4507 338.326 95.7307 338.326 97.224C338.326 98.7173 337.771 100.019 336.662 101.128C335.595 102.195 334.315 102.728 332.822 102.728ZM341.142 141.64C337.089 141.64 334.017 140.68 331.926 138.76C329.835 136.84 328.79 134.003 328.79 130.248V115.016H317.27V108.68H336.79V129.416C336.79 131.293 337.238 132.659 338.134 133.512C339.073 134.365 340.502 134.792 342.422 134.792C343.446 134.792 344.449 134.707 345.43 134.536C346.411 134.323 347.499 133.96 348.694 133.448V140.168C347.798 140.552 346.646 140.893 345.238 141.192C343.83 141.491 342.465 141.64 341.142 141.64ZM356.733 154.376V108.68H364.477V112.456C365.629 111.091 366.952 110.045 368.445 109.32C369.938 108.595 371.581 108.232 373.373 108.232C376.061 108.232 378.493 108.979 380.669 110.472C382.888 111.923 384.637 113.907 385.917 116.424C387.24 118.899 387.901 121.715 387.901 124.872C387.901 127.987 387.24 130.803 385.917 133.32C384.637 135.837 382.888 137.843 380.669 139.336C378.45 140.787 375.976 141.512 373.245 141.512C371.581 141.512 370.024 141.192 368.573 140.552C367.122 139.869 365.842 138.952 364.733 137.8V154.376H356.733ZM371.453 134.984C373.16 134.984 374.653 134.557 375.933 133.704C377.213 132.851 378.216 131.656 378.941 130.12C379.666 128.584 380.029 126.835 380.029 124.872C380.029 122.867 379.666 121.117 378.941 119.624C378.216 118.088 377.213 116.893 375.933 116.04C374.653 115.187 373.16 114.76 371.453 114.76C370.13 114.76 368.893 115.016 367.741 115.528C366.589 116.04 365.586 116.765 364.733 117.704V131.976C365.586 132.915 366.589 133.661 367.741 134.216C368.893 134.728 370.13 134.984 371.453 134.984ZM395.108 154.376V108.68H402.852V112.456C404.004 111.091 405.327 110.045 406.82 109.32C408.313 108.595 409.956 108.232 411.748 108.232C414.436 108.232 416.868 108.979 419.044 110.472C421.263 111.923 423.012 113.907 424.292 116.424C425.615 118.899 426.276 121.715 426.276 124.872C426.276 127.987 425.615 130.803 424.292 133.32C423.012 135.837 421.263 137.843 419.044 139.336C416.825 140.787 414.351 141.512 411.62 141.512C409.956 141.512 408.399 141.192 406.948 140.552C405.497 139.869 404.217 138.952 403.108 137.8V154.376H395.108ZM409.828 134.984C411.535 134.984 413.028 134.557 414.308 133.704C415.588 132.851 416.591 131.656 417.316 130.12C418.041 128.584 418.404 126.835 418.404 124.872C418.404 122.867 418.041 121.117 417.316 119.624C416.591 118.088 415.588 116.893 414.308 116.04C413.028 115.187 411.535 114.76 409.828 114.76C408.505 114.76 407.268 115.016 406.116 115.528C404.964 116.04 403.961 116.765 403.108 117.704V131.976C403.961 132.915 404.964 133.661 406.116 134.216C407.268 134.728 408.505 134.984 409.828 134.984ZM437.195 155.016C436.384 155.016 435.488 154.952 434.507 154.824C433.568 154.739 432.63 154.589 431.691 154.376V147.4C432.63 147.571 433.398 147.699 433.995 147.784C434.635 147.869 435.382 147.912 436.235 147.912C437.686 147.912 438.88 147.635 439.819 147.08C440.758 146.568 441.462 145.715 441.931 144.52L443.211 141.64L430.731 108.68H439.563L447.755 132.104L456.587 108.68H465.227L449.739 146.12C448.843 148.253 447.84 149.981 446.731 151.304C445.622 152.627 444.299 153.565 442.763 154.12C441.227 154.717 439.371 155.016 437.195 155.016Z" fill="#378ADD"/>
<path fill-rule="evenodd" clip-rule="evenodd" d="M136.612 45.144C139.328 43.62 142.672 43.62 145.384 45.144C158.804 52.676 199.188 75.348 212.612 82.88C215.328 84.4 217 87.216 217 90.264C217 105.328 217 150.668 217 165.732C217 168.78 215.328 171.596 212.612 173.12C199.192 180.652 158.808 203.324 145.384 210.856C142.668 212.38 139.324 212.38 136.612 210.856C123.192 203.324 82.808 180.652 69.384 173.12C66.672 171.596 65 168.784 65 165.736C65 150.672 65 105.332 65 90.268C65 87.22 66.672 84.404 69.388 82.88C82.804 75.348 123.196 52.676 136.612 45.144Z" fill="#378ADD"/>
<path fill-rule="evenodd" clip-rule="evenodd" d="M140.948 216.884C136.608 216.884 132.264 215.876 128.288 213.856C119.408 209.348 107.816 202.26 96.604 195.404C88.712 190.58 81.26 186.02 75.416 182.776C66.524 177.832 61 168.452 61 158.288V98.508C61 88.148 66.668 78.688 75.796 73.816C90.728 65.86 114.664 52.88 127.308 45.776C135.748 41.04 146.24 41.04 154.684 45.776C168.988 53.804 196.16 70.032 211.692 79.828C217.52 83.496 221 89.812 221 96.728V160C221 169.6 217.564 176.192 210.788 179.58C207.012 181.704 200.276 185.884 192.476 190.728C180.348 198.256 165.252 207.628 154.22 213.548C150.08 215.768 145.512 216.884 140.948 216.884ZM131.224 52.752C118.536 59.88 94.528 72.904 79.56 80.88C73.048 84.352 69 91.104 69 98.508V158.288C69 165.544 72.948 172.248 79.304 175.78C85.296 179.108 92.816 183.704 100.78 188.576C111.86 195.348 123.316 202.356 131.912 206.72C137.744 209.676 144.664 209.588 150.436 206.496C161.248 200.692 176.224 191.396 188.26 183.924C196.14 179.032 202.944 174.808 207.044 172.508C212.34 169.856 213 164.436 213 160V96.728C213 92.58 210.916 88.796 207.432 86.6C191.984 76.86 164.98 60.732 150.772 52.756C144.652 49.324 137.344 49.324 131.224 52.752Z" fill="#434345"/>
<path fill-rule="evenodd" clip-rule="evenodd" d="M136.908 198.616L136.68 144.864C136.636 134.488 142.332 124.94 151.484 120.048L199.524 94.384C207.516 90.112 217.18 95.904 217.18 104.968V163.888C217.18 168.052 215.02 171.92 211.476 174.104L155.204 208.776C147.228 213.696 136.948 207.984 136.908 198.616Z" fill="#434345"/>
<path fill-rule="evenodd" clip-rule="evenodd" d="M160.196 137.096C160.688 136.844 161.096 137.152 161.104 137.8L161.156 143.08C163.364 142.204 165.284 141.968 167.024 142.372C167.404 142.468 167.568 142.984 167.416 143.596L166.252 148.272C166.156 148.628 165.964 148.984 165.724 149.204C165.62 149.304 165.516 149.38 165.416 149.432C165.256 149.512 165.104 149.536 164.96 149.508C164.164 149.328 162.276 148.916 159.308 150.42C156.196 152 155.104 154.704 155.124 156.712C155.152 159.116 156.384 159.844 160.632 159.92C166.296 160.012 168.74 162.492 168.8 168.188C168.864 173.796 165.868 179.808 161.296 183.492L161.396 188.724C161.4 189.352 160.996 190.076 160.496 190.324L157.396 192.104C156.904 192.356 156.496 192.048 156.488 191.416L156.436 186.272C153.78 187.376 151.1 187.64 149.384 186.952C149.056 186.824 148.916 186.344 149.048 185.8L150.168 181.076C150.256 180.708 150.452 180.332 150.72 180.092C150.812 180 150.912 179.932 151.008 179.88C151.184 179.792 151.356 179.772 151.504 179.828C153.352 180.448 155.716 180.156 157.992 179.004C160.88 177.544 162.816 174.596 162.784 171.668C162.756 169.012 161.32 167.912 157.82 167.884C153.368 167.892 149.216 167.02 149.148 160.464C149.092 155.064 151.9 149.452 156.344 145.9L156.292 140.624C156.288 139.976 156.684 139.264 157.192 139.004L160.196 137.096Z" fill="#F3F3F3"/>
<path fill-rule="evenodd" clip-rule="evenodd" d="M193.904 171.428L179.088 180.168C178.652 180.412 178.112 180.092 178.112 179.596V174.588C178.112 174.136 178.356 173.72 178.752 173.496L193.568 164.756C194.012 164.512 194.552 164.832 194.552 165.336V170.328C194.552 170.788 194.304 171.204 193.904 171.428Z" fill="#378ADD"/>
</svg>
